# 3ds Max Wavefront OBJ Exporter v0.97b - (c)2007 guruware
# File Created: 01.06.2017 14:06:56

mtllib left-front-wheel.mtl

#
# object default
#

v  0.9406 0.0017 2.5083
v  0.9406 0.0886 2.1274
v  1.0640 0.0886 2.1274
v  1.0640 0.3322 1.8219
v  0.9406 0.3322 1.8219
v  1.0640 0.6842 1.6524
v  0.9406 0.6842 1.6524
v  0.8625 0.8819 2.5856
v  0.7949 0.8819 2.5856
v  0.7949 0.8501 2.5703
v  0.7949 0.9172 2.5856
v  0.8625 0.9491 2.5703
v  0.7949 0.9491 2.5703
v  0.8625 0.8501 2.5703
v  0.7949 0.8281 2.5427
v  0.8625 0.8281 2.5427
v  0.7949 0.8203 2.5083
v  0.7949 0.8501 2.4463
v  0.8625 0.8281 2.4739
v  0.7949 0.8281 2.4739
v  0.7949 0.9711 2.4739
v  0.8625 0.9491 2.4463
v  0.7949 0.9491 2.4463
v  1.1359 0.3870 3.1261
v  1.1359 0.7038 3.2786
v  1.0640 0.6842 3.3642
v  1.1359 0.1677 2.8511
v  1.0845 0.5714 2.8947
v  1.0640 0.0017 2.5083
v  1.1359 0.0895 2.5083
v  1.0845 0.7696 2.9902
v  1.0845 0.3854 2.5083
v  1.1359 0.1677 2.1655
v  1.0845 0.4343 2.7228
v  1.0845 0.4343 2.2939
v  1.0845 0.5714 2.1219
v  1.1359 0.3870 1.8906
v  1.0845 0.7696 2.0265
v  1.1359 0.7038 1.7380
v  1.1359 1.0554 1.7380
v  1.0845 0.9896 2.0265
v  1.0640 1.0750 1.6524
v  1.1359 1.3722 1.8906
v  1.0640 1.4270 1.8219
v  1.0845 1.1878 2.1219
v  1.1359 1.5915 2.1655
v  1.0640 1.6706 2.1274
v  1.0845 1.3249 2.2939
v  1.0845 1.3249 2.7228
v  1.1359 1.6697 2.5083
v  1.0640 1.7575 2.5083
v  1.0845 1.3738 2.5083
v  1.1359 1.5915 2.8511
v  1.0845 0.9896 2.9902
v  1.0845 1.1878 2.8947
v  1.1359 1.3722 3.1261
v  1.1359 1.0554 3.2786
v  1.0640 1.4270 3.1947
v  0.9406 0.0886 2.8892
v  0.9406 0.3322 3.1947
v  0.8687 0.3870 3.1261
v  0.9406 0.6842 3.3642
v  0.8687 0.1677 2.8511
v  0.8687 0.7038 3.2786
v  0.8625 0.8203 2.5083
v  0.8687 0.0895 2.5083
v  0.8687 0.1677 2.1655
v  0.8625 0.8501 2.4463
v  0.8687 0.7038 1.7380
v  0.8687 0.3870 1.8906
v  0.8625 0.8819 2.4310
v  0.8687 1.0554 1.7380
v  0.9406 1.0750 1.6524
v  0.8625 0.9172 2.4310
v  0.8687 1.3722 1.8906
v  0.8687 1.6697 2.5083
v  0.9406 1.6706 2.1274
v  0.8687 1.5915 2.1655
v  0.8625 0.9711 2.4739
v  0.8625 0.9789 2.5083
v  0.8625 0.9711 2.5427
v  0.8687 1.5915 2.8511
v  0.8687 1.3722 3.1261
v  0.9406 1.6706 2.8892
v  0.8625 0.9172 2.5856
v  0.8687 1.0554 3.2786
v  0.9406 1.0750 3.3642
v  0.9406 1.4270 1.8219
v  0.9406 1.7575 2.5083
v  1.0640 0.0886 2.8892
v  1.0640 0.3322 3.1947
v  1.0640 1.0750 3.3642
v  0.9406 1.4270 3.1947
v  1.0640 1.6706 2.8892
v  0.7949 0.9711 2.5427
v  0.7949 0.9789 2.5083
v  0.7949 0.8819 2.4310
v  0.7949 0.9172 2.4310
# 98 vertices

vn -0.3894 -0.7565 -0.5254
vn 0.0730 -0.8986 -0.4327
vn 0.2721 -0.9609 0.0502
vn 0.3978 -0.8586 -0.3235
vn 0.0730 -0.6218 -0.7797
vn 0.3977 -0.6335 -0.6637
vn 0.0730 -0.2219 -0.9723
vn -0.7575 -0.1452 0.6364
vn 0.0000 -0.2225 0.9749
vn 0.0000 -0.6235 0.7818
vn 0.0000 0.2225 0.9749
vn -0.7574 0.4071 0.5104
vn 0.0000 0.6235 0.7818
vn -0.7576 -0.4070 0.5104
vn 0.0000 -0.9010 0.4339
vn -0.7576 -0.5881 0.2832
vn 0.0000 -1.0000 -0.0000
vn 0.0000 -0.6235 -0.7818
vn -0.7576 -0.5881 -0.2832
vn 0.0000 -0.9010 -0.4339
vn 0.0000 0.9010 -0.4339
vn -0.7574 0.4071 -0.5104
vn 0.0000 0.6235 -0.7818
vn 0.9513 -0.1922 0.2410
vn 0.9513 -0.0686 0.3006
vn 0.5141 -0.5925 0.6203
vn 0.9513 -0.2778 0.1338
vn 0.9952 0.0611 -0.0767
vn 0.8271 -0.5620 -0.0000
vn 0.9513 -0.3083 -0.0000
vn 0.9952 0.0218 -0.0956
vn 0.9952 0.0980 -0.0000
vn 0.9513 -0.2778 -0.1338
vn 0.9952 0.0883 -0.0425
vn 0.9952 0.0883 0.0425
vn 0.9952 0.0611 0.0767
vn 0.9513 -0.1922 -0.2410
vn 0.9952 0.0218 0.0956
vn 0.9513 -0.0686 -0.3006
vn 0.9513 0.0686 -0.3006
vn 0.9952 -0.0218 0.0956
vn 0.5141 0.5925 -0.6203
vn 0.9513 0.1922 -0.2410
vn 0.7890 0.3831 -0.4804
vn 0.9952 -0.0611 0.0767
vn 0.9513 0.2778 -0.1338
vn 0.7890 0.5536 -0.2666
vn 0.9952 -0.0883 0.0425
vn 0.9952 -0.0883 -0.0425
vn 0.9513 0.3083 -0.0000
vn 0.8271 0.5620 -0.0000
vn 0.9952 -0.0980 -0.0000
vn 0.9513 0.2778 0.1338
vn 0.9952 -0.0218 -0.0956
vn 0.9952 -0.0611 -0.0767
vn 0.9513 0.1922 0.2410
vn 0.9513 0.0686 0.3006
vn 0.5141 0.1155 0.8499
vn -0.3978 -0.5064 0.7651
vn -0.7885 -0.3834 0.4808
vn -0.9245 -0.2377 0.2980
vn -0.5141 -0.5928 0.6199
vn -0.9245 -0.3434 0.1654
vn -0.9245 -0.0849 0.3717
vn -0.7576 -0.6527 -0.0000
vn -0.9245 -0.3812 -0.0000
vn -0.9245 -0.3434 -0.1654
vn -0.7576 -0.4070 -0.5104
vn -0.9245 -0.0849 -0.3717
vn -0.9245 -0.2377 -0.2980
vn -0.7575 -0.1452 -0.6364
vn -0.9245 0.0848 -0.3717
vn -0.5141 -0.2651 -0.8157
vn -0.7575 0.1453 -0.6365
vn -0.9244 0.2378 -0.2982
vn -0.9244 0.3814 -0.0000
vn -0.7890 0.5536 -0.2666
vn -0.9244 0.3436 -0.1655
vn -0.7574 0.5883 -0.2833
vn -0.7574 0.6529 -0.0000
vn -0.7574 0.5883 0.2833
vn -0.9244 0.3436 0.1655
vn -0.9244 0.2378 0.2982
vn -0.7890 0.5536 0.2666
vn -0.7575 0.1453 0.6365
vn -0.9245 0.0848 0.3717
vn -0.7885 0.1368 0.5996
vn 0.0730 0.6218 -0.7797
vn 0.1374 0.9905 -0.0000
vn -0.0730 -0.8986 0.4327
vn -0.0722 -0.6219 0.7798
vn -0.0730 0.2219 0.9723
vn -0.3978 0.1243 0.9090
vn -0.0730 0.8986 0.4327
vn 0.0000 0.9010 0.4339
vn 0.0000 1.0000 -0.0000
vn 0.0000 -0.2225 -0.9749
vn 0.0000 0.2225 -0.9749
# 98 vertex normals

vt 0.0922 0.6870 0.0000
vt 0.0922 0.7178 0.0000
vt 0.1060 0.7178 0.0000
vt 0.1060 0.7480 0.0000
vt 0.0922 0.7480 0.0000
vt 0.1060 0.7782 0.0000
vt 0.0922 0.7782 0.0000
vt 0.6338 0.4380 0.0000
vt 0.6372 0.4390 0.0000
vt 0.6377 0.4380 0.0000
vt 0.6372 0.4399 0.0000
vt 0.6348 0.4434 0.0000
vt 0.6377 0.4409 0.0000
vt 0.6348 0.4355 0.0000
vt 0.6387 0.4370 0.0000
vt 0.6372 0.4336 0.0000
vt 0.6396 0.4370 0.0000
vt 0.6416 0.4380 0.0000
vt 0.6426 0.4336 0.0000
vt 0.6411 0.4370 0.0000
vt 0.6411 0.4414 0.0000
vt 0.6450 0.4434 0.0000
vt 0.6416 0.4409 0.0000
vt 0.6895 0.3994 0.0000
vt 0.7017 0.4253 0.0000
vt 0.7114 0.4229 0.0000
vt 0.6670 0.3818 0.0000
vt 0.6704 0.4146 0.0000
vt 0.6392 0.3652 0.0000
vt 0.6392 0.3755 0.0000
vt 0.6777 0.4307 0.0000
vt 0.6392 0.3999 0.0000
vt 0.6118 0.3818 0.0000
vt 0.6563 0.4038 0.0000
vt 0.6221 0.4038 0.0000
vt 0.6084 0.4146 0.0000
vt 0.5894 0.3994 0.0000
vt 0.6006 0.4307 0.0000
vt 0.5767 0.4253 0.0000
vt 0.5771 0.4536 0.0000
vt 0.6006 0.4482 0.0000
vt 0.5669 0.4561 0.0000
vt 0.5894 0.4790 0.0000
vt 0.5815 0.4858 0.0000
vt 0.6084 0.4639 0.0000
vt 0.6118 0.4971 0.0000
vt 0.6069 0.5061 0.0000
vt 0.6221 0.4751 0.0000
vt 0.6563 0.4751 0.0000
vt 0.6392 0.5032 0.0000
vt 0.6392 0.5134 0.0000
vt 0.6392 0.4790 0.0000
vt 0.6670 0.4971 0.0000
vt 0.6777 0.4482 0.0000
vt 0.6704 0.4639 0.0000
vt 0.6895 0.4795 0.0000
vt 0.7017 0.4536 0.0000
vt 0.6973 0.4858 0.0000
vt 0.6074 0.3726 0.0000
vt 0.5815 0.3931 0.0000
vt 0.5898 0.3994 0.0000
vt 0.5669 0.4229 0.0000
vt 0.6118 0.3813 0.0000
vt 0.5771 0.4253 0.0000
vt 0.6396 0.4331 0.0000
vt 0.6396 0.3755 0.0000
vt 0.6675 0.3818 0.0000
vt 0.6450 0.4355 0.0000
vt 0.7026 0.4253 0.0000
vt 0.6899 0.3994 0.0000
vt 0.6460 0.4380 0.0000
vt 0.7026 0.4536 0.0000
vt 0.7129 0.4561 0.0000
vt 0.6460 0.4409 0.0000
vt 0.6899 0.4795 0.0000
vt 0.6396 0.5034 0.0000
vt 0.6719 0.5063 0.0000
vt 0.6675 0.4971 0.0000
vt 0.6426 0.4448 0.0000
vt 0.6396 0.4458 0.0000
vt 0.6372 0.4448 0.0000
vt 0.5898 0.4795 0.0000
vt 0.6074 0.5061 0.0000
vt 0.6338 0.4409 0.0000
vt 0.5674 0.4561 0.0000
vt 0.1060 0.6870 0.0000
vt 0.1060 0.8084 0.0000
vt 0.0922 0.8084 0.0000
vt 0.1060 0.8385 0.0000
vt 0.0922 0.8385 0.0000
vt 0.1060 0.8688 0.0000
vt 0.0922 0.8688 0.0000
vt 0.1060 0.9005 0.0000
vt 0.0922 0.9005 0.0000
vt 0.0922 0.8386 0.0000
vt 0.1060 0.8386 0.0000
vt 0.0922 0.6873 0.0000
vt 0.1060 0.6873 0.0000
vt 0.6387 0.4414 0.0000
vt 0.6396 0.4419 0.0000
vt 0.6421 0.4390 0.0000
vt 0.6421 0.4399 0.0000
vt 0.6714 0.3726 0.0000
vt 0.6973 0.3931 0.0000
vt 0.7119 0.4561 0.0000
vt 0.6069 0.3726 0.0000
vt 0.6714 0.5061 0.0000
vt 0.6396 0.3652 0.0000
vt 0.6719 0.3726 0.0000
vt 0.6978 0.3931 0.0000
vt 0.7124 0.4229 0.0000
vt 0.6982 0.4858 0.0000
vt 0.6396 0.5137 0.0000
# 113 texture coords

g default
usemtl Tractor
s 1
f 1/1/1 2/2/2 3/3/3 
f 4/4/4 3/3/3 2/2/2 
f 2/2/2 5/5/5 4/4/4 
f 6/6/6 4/4/4 5/5/5 
f 5/5/5 7/7/7 6/6/6 
f 8/8/8 9/9/9 10/10/10 
f 11/11/11 12/12/12 13/13/13 
f 8/8/8 10/10/10 14/14/14 
f 14/14/14 10/10/10 15/15/15 
f 14/14/14 15/15/15 16/16/16 
f 16/16/16 15/15/15 17/17/17 
f 18/18/18 19/19/19 20/20/20 
f 21/21/21 22/22/22 23/23/23 
f 24/24/24 25/25/25 26/26/26 
f 27/27/27 28/28/28 24/24/24 
f 28/28/28 25/25/25 24/24/24 
f 27/27/27 29/29/29 30/30/30 
f 25/25/25 28/28/28 31/31/31 
f 32/32/32 27/27/27 30/30/30 
f 32/32/32 30/30/30 33/33/33 
f 28/28/28 27/27/27 34/34/34 
f 27/27/27 32/32/32 34/34/34 
f 34/34/34 31/31/31 28/28/28 
f 33/33/33 35/35/35 32/32/32 
f 35/35/35 34/34/34 32/32/32 
f 33/33/33 36/36/36 35/35/35 
f 36/36/36 33/33/33 37/37/37 
f 38/38/38 35/35/35 36/36/36 
f 37/37/37 38/38/38 36/36/36 
f 38/38/38 34/34/34 35/35/35 
f 38/38/38 37/37/37 39/39/39 
f 40/40/40 38/38/38 39/39/39 
f 38/38/38 40/40/40 41/41/41 
f 41/41/41 34/34/34 38/38/38 
f 42/42/42 43/43/43 40/40/40 
f 43/43/43 42/42/42 44/44/44 
f 40/40/40 45/45/45 41/41/41 
f 45/45/45 40/40/40 43/43/43 
f 45/45/45 34/34/34 41/41/41 
f 44/44/44 46/46/46 43/43/43 
f 44/44/44 47/47/47 46/46/46 
f 43/43/43 48/48/48 45/45/45 
f 48/48/48 43/43/43 46/46/46 
f 34/34/34 45/45/45 49/49/49 
f 49/49/49 45/45/45 48/48/48 
f 47/47/47 50/50/50 46/46/46 
f 47/47/47 51/51/51 50/50/50 
f 46/46/46 52/52/52 48/48/48 
f 52/52/52 46/46/46 50/50/50 
f 49/49/49 48/48/48 52/52/52 
f 53/53/53 50/50/50 51/51/51 
f 53/53/53 52/52/52 50/50/50 
f 52/52/52 53/53/53 49/49/49 
f 54/54/54 34/34/34 49/49/49 
f 34/34/34 54/54/54 31/31/31 
f 25/25/25 31/31/31 54/54/54 
f 53/53/53 55/55/55 49/49/49 
f 54/54/54 49/49/49 55/55/55 
f 55/55/55 53/53/53 56/56/56 
f 55/55/55 57/57/57 54/54/54 
f 55/55/55 56/56/56 57/57/57 
f 57/57/57 25/25/25 54/54/54 
f 58/58/58 57/57/57 56/56/56 
f 59/59/59 60/60/60 61/61/61 
f 62/62/62 61/61/61 60/60/60 
f 61/61/61 63/63/63 59/59/59 
f 61/61/61 62/62/62 64/64/64 
f 63/63/63 65/65/65 66/66/66 
f 65/65/65 67/67/67 66/66/66 
f 68/68/68 69/69/69 70/70/70 
f 69/69/69 68/68/68 71/71/71 
f 71/71/71 72/72/72 69/69/69 
f 69/69/69 72/72/72 73/73/73 
f 72/72/72 71/71/71 74/74/74 
f 75/75/75 73/73/73 72/72/72 
f 74/74/74 75/75/75 72/72/72 
f 76/76/76 77/77/77 78/78/78 
f 79/79/79 76/76/76 78/78/78 
f 76/76/76 79/79/79 80/80/80 
f 81/81/81 76/76/76 80/80/80 
f 76/76/76 81/81/81 82/46/82 
f 83/82/83 84/83/84 82/46/82 
f 83/82/83 85/84/85 86/40/86 
f 62/62/62 87/85/87 86/40/86 
f 62/62/62 86/40/86 64/64/64 
f 3/3/3 29/86/29 1/1/1 
f 42/87/42 6/6/6 7/7/7 
f 7/7/7 73/88/73 42/87/42 
f 44/89/44 42/87/42 73/88/73 
f 73/88/73 88/90/88 44/89/44 
f 88/90/88 47/91/47 44/89/44 
f 47/91/47 88/90/88 77/92/77 
f 77/92/77 51/93/51 47/91/47 
f 51/93/51 77/92/77 89/94/89 
f 59/92/59 1/94/1 29/93/29 
f 29/93/29 90/91/90 59/92/59 
f 60/95/60 59/92/59 90/91/90 
f 90/91/90 91/96/91 60/95/60 
f 62/88/62 60/95/60 91/96/91 
f 91/96/91 26/87/26 62/88/62 
f 87/7/87 62/88/62 26/87/26 
f 26/87/26 92/6/92 87/7/87 
f 93/5/93 87/7/87 92/6/92 
f 92/6/92 58/4/58 93/5/93 
f 58/4/58 84/2/84 93/5/93 
f 84/2/84 58/4/58 94/3/94 
f 94/3/94 89/97/89 84/2/84 
f 89/97/89 94/3/94 51/98/51 
f 9/9/9 85/84/85 11/11/11 
f 85/84/85 9/9/9 8/8/8 
f 12/12/12 11/11/11 85/84/85 
f 13/13/13 12/12/12 81/81/81 
f 13/13/13 81/81/81 95/99/95 
f 95/99/95 81/81/81 80/80/80 
f 95/99/95 80/80/80 96/100/96 
f 16/16/16 17/17/17 65/65/65 
f 96/100/96 80/80/80 79/79/79 
f 65/65/65 17/17/17 20/20/20 
f 96/100/96 79/79/79 21/21/21 
f 65/65/65 20/20/20 19/19/19 
f 21/21/21 79/79/79 22/22/22 
f 19/19/19 18/18/18 68/68/68 
f 74/74/74 23/23/23 22/22/22 
f 68/68/68 18/18/18 97/101/97 
f 74/74/74 98/102/98 23/23/23 
f 68/68/68 97/101/97 71/71/71 
f 71/71/71 98/102/98 74/74/74 
f 71/71/71 97/101/97 98/102/98 
f 90/103/90 24/24/24 91/104/91 
f 26/26/26 91/104/91 24/24/24 
f 24/24/24 90/103/90 27/27/27 
f 29/29/29 27/27/27 90/103/90 
f 92/105/92 26/26/26 25/25/25 
f 3/106/3 30/30/30 29/29/29 
f 30/30/30 3/106/3 33/33/33 
f 4/60/4 33/33/33 3/106/3 
f 33/33/33 4/60/4 37/37/37 
f 6/62/6 37/37/37 4/60/4 
f 37/37/37 6/62/6 39/39/39 
f 6/62/6 40/40/40 39/39/39 
f 40/40/40 6/62/6 42/42/42 
f 51/51/51 94/107/94 53/53/53 
f 94/107/94 56/56/56 53/53/53 
f 56/56/56 94/107/94 58/58/58 
f 92/105/92 25/25/25 57/57/57 
f 57/57/57 58/58/58 92/105/92 
f 63/63/63 1/108/1 59/59/59 
f 1/108/1 63/63/63 66/66/66 
f 2/109/2 1/108/1 66/66/66 
f 61/61/61 16/16/16 63/63/63 
f 16/16/16 61/61/61 14/14/14 
f 14/14/14 61/61/61 64/64/64 
f 65/65/65 63/63/63 16/16/16 
f 14/14/14 64/64/64 8/8/8 
f 2/109/2 66/66/66 67/67/67 
f 67/67/67 65/65/65 19/19/19 
f 5/110/5 2/109/2 67/67/67 
f 19/19/19 70/70/70 67/67/67 
f 5/110/5 67/67/67 70/70/70 
f 70/70/70 19/19/19 68/68/68 
f 70/70/70 7/111/7 5/110/5 
f 7/111/7 70/70/70 69/69/69 
f 69/69/69 73/73/73 7/111/7 
f 73/73/73 75/75/75 88/112/88 
f 75/75/75 74/74/74 22/22/22 
f 78/78/78 88/112/88 75/75/75 
f 22/22/22 78/78/78 75/75/75 
f 88/112/88 78/78/78 77/77/77 
f 78/78/78 22/22/22 79/79/79 
f 77/77/77 76/76/76 89/113/89 
f 82/46/82 89/113/89 76/76/76 
f 89/113/89 82/46/82 84/83/84 
f 12/12/12 82/46/82 81/81/81 
f 82/46/82 12/12/12 83/82/83 
f 84/83/84 83/82/83 93/44/93 
f 85/84/85 83/82/83 12/12/12 
f 86/40/86 93/44/93 83/82/83 
f 93/44/93 86/40/86 87/85/87 
f 86/40/86 85/84/85 8/8/8 
f 8/8/8 64/64/64 86/40/86 
# 0 polygons - 180 triangles

