# 3ds Max Wavefront OBJ Exporter v0.97b - (c)2007 guruware
# File Created: 01.06.2017 14:06:22

mtllib right-front-wheel.mtl

#
# object default
#

v  -1.0640 1.4270 3.1947
v  -1.0640 1.0750 3.3642
v  -0.9406 1.4270 3.1947
v  -1.0640 1.0750 1.6524
v  -0.9406 0.6842 1.6524
v  -1.0640 0.6842 1.6524
v  -1.0640 1.7575 2.5083
v  -0.9406 1.6706 2.1274
v  -1.0640 1.6706 2.1274
v  -0.8625 0.9491 2.4463
v  -0.7949 0.9711 2.4739
v  -0.7949 0.9491 2.4463
v  -0.8625 0.9711 2.4739
v  -0.7949 0.9789 2.5083
v  -0.7949 0.8501 2.4463
v  -0.8625 0.8501 2.4463
v  -0.7949 0.8819 2.4310
v  -0.8625 0.8281 2.4739
v  -0.8625 0.9711 2.5427
v  -0.7949 0.9491 2.5703
v  -0.7949 0.9711 2.5427
v  -0.7949 0.8281 2.4739
v  -0.8625 0.9491 2.5703
v  -0.8625 0.8203 2.5083
v  -0.7949 0.9172 2.5856
v  -0.7949 0.8203 2.5083
v  -0.7949 0.8819 2.5856
v  -0.8625 0.8819 2.5856
v  -0.7949 0.8501 2.5703
v  -0.8625 0.8501 2.5703
v  -0.7949 0.8281 2.5427
v  -1.1359 0.3870 3.1261
v  -1.0640 0.0886 2.8892
v  -1.0640 0.3322 3.1947
v  -1.0640 0.6842 3.3642
v  -1.1359 0.1677 2.8511
v  -1.1359 0.7038 3.2786
v  -1.0845 0.5714 2.8947
v  -1.0845 0.7696 2.9902
v  -1.0640 0.0886 2.1274
v  -1.1359 0.0895 2.5083
v  -1.1359 0.1677 2.1655
v  -1.0845 0.3854 2.5083
v  -1.0845 0.4343 2.7228
v  -1.0845 0.4343 2.2939
v  -1.0845 0.5714 2.1219
v  -1.1359 0.3870 1.8906
v  -1.0845 0.7696 2.0265
v  -1.1359 0.7038 1.7380
v  -1.0845 0.9896 2.0265
v  -1.1359 1.0554 1.7380
v  -1.0845 1.1878 2.1219
v  -1.1359 1.3722 1.8906
v  -1.0845 1.3249 2.2939
v  -1.1359 1.5915 2.1655
v  -1.0845 1.3249 2.7228
v  -1.0845 1.3738 2.5083
v  -1.1359 1.6697 2.5083
v  -1.1359 1.5915 2.8511
v  -1.0845 0.9896 2.9902
v  -1.0845 1.1878 2.8947
v  -1.1359 1.3722 3.1261
v  -1.0640 1.6706 2.8892
v  -1.1359 1.0554 3.2786
v  -0.8687 0.3870 3.1261
v  -0.9406 0.0886 2.8892
v  -0.8687 0.1677 2.8511
v  -0.8625 0.8281 2.5427
v  -0.8687 0.1677 2.1655
v  -0.9406 0.3322 1.8219
v  -0.8687 0.3870 1.8906
v  -0.8687 1.0554 1.7380
v  -0.8625 0.8819 2.4310
v  -0.8687 0.7038 1.7380
v  -0.9406 1.0750 1.6524
v  -0.8625 0.9172 2.4310
v  -0.8687 1.3722 1.8906
v  -0.9406 1.4270 1.8219
v  -0.8687 1.5915 2.1655
v  -0.9406 1.7575 2.5083
v  -0.8687 1.5915 2.8511
v  -0.8687 1.6697 2.5083
v  -0.9406 1.6706 2.8892
v  -0.8687 1.3722 3.1261
v  -0.8687 1.0554 3.2786
v  -0.8625 0.9172 2.5856
v  -0.9406 1.0750 3.3642
v  -0.8687 0.7038 3.2786
v  -1.0640 0.0017 2.5083
v  -0.9406 0.0017 2.5083
v  -0.9406 0.3322 3.1947
v  -0.9406 0.6842 3.3642
v  -0.9406 0.0886 2.1274
v  -1.0640 0.3322 1.8219
v  -1.0640 1.4270 1.8219
v  -0.7949 0.9172 2.4310
v  -0.8625 0.9789 2.5083
v  -0.8687 0.0895 2.5083
# 98 vertices

vn -0.3978 0.1243 0.9090
vn -0.2721 0.6384 0.7200
vn -0.0730 0.6218 0.7797
vn -0.2720 -0.2631 -0.9256
vn -0.0730 -0.2219 -0.9723
vn -0.3978 0.2824 -0.8729
vn -0.2488 0.8190 -0.5171
vn -0.0730 0.8986 -0.4327
vn -0.3978 0.9139 0.0811
vn 0.7574 0.4071 -0.5104
vn 0.0000 0.9010 -0.4339
vn 0.0000 0.6235 -0.7818
vn 0.7574 0.5883 -0.2833
vn 0.0000 1.0000 -0.0000
vn 0.0000 -0.6235 -0.7818
vn 0.7576 -0.4070 -0.5104
vn 0.0000 -0.2225 -0.9749
vn 0.7576 -0.5881 -0.2832
vn 0.7574 0.5883 0.2833
vn 0.0000 0.6235 0.7818
vn 0.0000 0.9010 0.4339
vn 0.0000 -0.9010 -0.4339
vn 0.7574 0.4071 0.5104
vn 0.7576 -0.6527 -0.0000
vn 0.0000 0.2225 0.9749
vn 0.0000 -1.0000 -0.0000
vn 0.0000 -0.2225 0.9749
vn 0.7575 -0.1452 0.6364
vn 0.0000 -0.6235 0.7818
vn 0.7576 -0.4070 0.5104
vn 0.0000 -0.9010 0.4339
vn -0.9513 -0.1922 0.2410
vn -0.3978 -0.5064 0.7651
vn -0.7885 -0.3834 0.4808
vn -0.5141 -0.5925 0.6203
vn -0.9513 -0.2778 0.1338
vn -0.9513 -0.0686 0.3006
vn -0.9952 0.0611 -0.0767
vn -0.9952 0.0218 -0.0956
vn -0.5141 -0.8543 0.0765
vn -0.9513 -0.3083 -0.0000
vn -0.9513 -0.2778 -0.1338
vn -0.9952 0.0980 -0.0000
vn -0.9952 0.0883 -0.0425
vn -0.9952 0.0883 0.0425
vn -0.9952 0.0611 0.0767
vn -0.9513 -0.1922 -0.2410
vn -0.9952 0.0218 0.0956
vn -0.9513 -0.0686 -0.3006
vn -0.9952 -0.0218 0.0956
vn -0.9513 0.0686 -0.3006
vn -0.9952 -0.0611 0.0767
vn -0.9513 0.1922 -0.2410
vn -0.9952 -0.0883 0.0425
vn -0.9513 0.2778 -0.1338
vn -0.9952 -0.0883 -0.0425
vn -0.9952 -0.0980 -0.0000
vn -0.9513 0.3083 -0.0000
vn -0.9513 0.2778 0.1338
vn -0.9952 -0.0218 -0.0956
vn -0.9952 -0.0611 -0.0767
vn -0.9513 0.1922 0.2410
vn -0.7890 0.5536 0.2666
vn -0.9513 0.0686 0.3006
vn 0.9245 -0.2377 0.2980
vn 0.7890 -0.5536 0.2666
vn 0.9245 -0.3434 0.1654
vn 0.7576 -0.5881 0.2832
vn 0.9245 -0.3434 -0.1654
vn 0.7890 -0.3831 -0.4804
vn 0.9245 -0.2377 -0.2980
vn 0.9245 0.0848 -0.3717
vn 0.7575 -0.1452 -0.6364
vn 0.9245 -0.0849 -0.3717
vn 0.7892 0.1366 -0.5987
vn 0.7575 0.1453 -0.6365
vn 0.9244 0.2378 -0.2982
vn 0.7890 0.3831 -0.4804
vn 0.9244 0.3436 -0.1655
vn 0.5195 0.6987 0.4919
vn 0.9244 0.3436 0.1655
vn 0.9244 0.3814 -0.0000
vn 0.7890 0.5536 0.2666
vn 0.9244 0.2378 0.2982
vn 0.9245 0.0848 0.3717
vn 0.7575 0.1453 0.6365
vn 0.5141 -0.2647 0.8159
vn 0.9245 -0.0848 0.3717
vn 0.1374 -0.9905 -0.0000
vn 0.3894 -0.7565 0.5254
vn 0.2724 -0.8872 0.3723
vn 0.2721 -0.6384 0.7200
vn 0.3978 -0.9139 0.0811
vn -0.2721 -0.8876 -0.3717
vn -0.2721 0.1649 -0.9480
vn 0.0000 0.2225 -0.9749
vn 0.7574 0.6529 -0.0000
vn 0.9245 -0.3812 -0.0000
# 98 vertex normals

vt 0.1060 0.7480 0.0000
vt 0.1060 0.7782 0.0000
vt 0.0922 0.7480 0.0000
vt 0.1060 0.8084 0.0000
vt 0.0922 0.7782 0.0000
vt 0.1060 0.9005 0.0000
vt 0.0922 0.8688 0.0000
vt 0.1060 0.8688 0.0000
vt 0.6450 0.4434 0.0000
vt 0.6411 0.4414 0.0000
vt 0.6416 0.4409 0.0000
vt 0.6426 0.4448 0.0000
vt 0.6396 0.4419 0.0000
vt 0.6416 0.4380 0.0000
vt 0.6450 0.4355 0.0000
vt 0.6421 0.4390 0.0000
vt 0.6426 0.4336 0.0000
vt 0.6372 0.4448 0.0000
vt 0.6377 0.4409 0.0000
vt 0.6387 0.4414 0.0000
vt 0.6411 0.4370 0.0000
vt 0.6348 0.4434 0.0000
vt 0.6396 0.4331 0.0000
vt 0.6372 0.4399 0.0000
vt 0.6396 0.4370 0.0000
vt 0.6372 0.4390 0.0000
vt 0.6338 0.4380 0.0000
vt 0.6377 0.4380 0.0000
vt 0.6348 0.4355 0.0000
vt 0.6387 0.4370 0.0000
vt 0.6895 0.3994 0.0000
vt 0.6714 0.3726 0.0000
vt 0.6973 0.3931 0.0000
vt 0.7114 0.4229 0.0000
vt 0.6670 0.3818 0.0000
vt 0.7017 0.4253 0.0000
vt 0.6704 0.4146 0.0000
vt 0.6777 0.4307 0.0000
vt 0.6069 0.3726 0.0000
vt 0.6392 0.3755 0.0000
vt 0.6118 0.3818 0.0000
vt 0.6392 0.3999 0.0000
vt 0.6563 0.4038 0.0000
vt 0.6221 0.4038 0.0000
vt 0.6084 0.4146 0.0000
vt 0.5894 0.3994 0.0000
vt 0.6006 0.4307 0.0000
vt 0.5767 0.4253 0.0000
vt 0.6006 0.4482 0.0000
vt 0.5771 0.4536 0.0000
vt 0.6084 0.4639 0.0000
vt 0.5894 0.4790 0.0000
vt 0.6221 0.4751 0.0000
vt 0.6118 0.4971 0.0000
vt 0.6563 0.4751 0.0000
vt 0.6392 0.4790 0.0000
vt 0.6392 0.5032 0.0000
vt 0.6670 0.4971 0.0000
vt 0.6777 0.4482 0.0000
vt 0.6704 0.4639 0.0000
vt 0.6895 0.4795 0.0000
vt 0.6714 0.5061 0.0000
vt 0.7017 0.4536 0.0000
vt 0.5898 0.3994 0.0000
vt 0.6074 0.3726 0.0000
vt 0.6118 0.3813 0.0000
vt 0.6372 0.4336 0.0000
vt 0.6675 0.3818 0.0000
vt 0.6978 0.3931 0.0000
vt 0.6899 0.3994 0.0000
vt 0.7026 0.4536 0.0000
vt 0.6460 0.4380 0.0000
vt 0.7026 0.4253 0.0000
vt 0.7129 0.4561 0.0000
vt 0.6460 0.4409 0.0000
vt 0.6899 0.4795 0.0000
vt 0.6982 0.4858 0.0000
vt 0.6675 0.4971 0.0000
vt 0.6396 0.5137 0.0000
vt 0.6396 0.5034 0.0000
vt 0.6074 0.5061 0.0000
vt 0.5898 0.4795 0.0000
vt 0.6338 0.4409 0.0000
vt 0.5674 0.4561 0.0000
vt 0.5771 0.4253 0.0000
vt 0.0922 0.9005 0.0000
vt 0.0922 0.8386 0.0000
vt 0.1060 0.8386 0.0000
vt 0.0922 0.8084 0.0000
vt 0.0922 0.7178 0.0000
vt 0.1060 0.7178 0.0000
vt 0.0922 0.6873 0.0000
vt 0.1060 0.6873 0.0000
vt 0.0922 0.6870 0.0000
vt 0.1060 0.6870 0.0000
vt 0.1060 0.8385 0.0000
vt 0.0922 0.8385 0.0000
vt 0.6421 0.4399 0.0000
vt 0.6396 0.4458 0.0000
vt 0.6392 0.3652 0.0000
vt 0.7119 0.4561 0.0000
vt 0.5815 0.3931 0.0000
vt 0.5669 0.4229 0.0000
vt 0.5669 0.4561 0.0000
vt 0.5815 0.4858 0.0000
vt 0.6069 0.5061 0.0000
vt 0.6392 0.5134 0.0000
vt 0.6973 0.4858 0.0000
vt 0.6396 0.3652 0.0000
vt 0.6396 0.3755 0.0000
vt 0.6719 0.3726 0.0000
vt 0.7124 0.4229 0.0000
vt 0.6719 0.5063 0.0000
# 113 texture coords

g default
usemtl Tractor
s 1
f 1/1/1 2/2/2 3/3/3 
f 4/4/4 5/5/5 6/2/6 
f 7/6/7 8/7/8 9/8/9 
f 10/9/10 11/10/11 12/11/12 
f 11/10/11 10/9/10 13/12/13 
f 13/12/13 14/13/14 11/10/11 
f 15/14/15 16/15/16 17/16/17 
f 16/15/16 15/14/15 18/17/18 
f 19/18/19 20/19/20 21/20/21 
f 22/21/22 18/17/18 15/14/15 
f 20/19/20 19/18/19 23/22/23 
f 18/17/18 22/21/22 24/23/24 
f 20/19/20 23/22/23 25/24/25 
f 26/25/26 24/23/24 22/21/22 
f 27/26/27 28/27/28 29/28/29 
f 29/28/29 30/29/30 31/30/31 
f 30/29/30 29/28/29 28/27/28 
f 32/31/32 33/32/33 34/33/34 
f 34/33/34 35/34/35 32/31/32 
f 33/32/33 32/31/32 36/35/36 
f 32/31/32 35/34/35 37/36/37 
f 36/35/36 32/31/32 38/37/38 
f 37/36/37 38/37/38 32/31/32 
f 38/37/38 37/36/37 39/38/39 
f 40/39/40 41/40/41 42/41/42 
f 36/35/36 43/42/43 41/40/41 
f 43/42/43 42/41/42 41/40/41 
f 38/37/38 44/43/44 36/35/36 
f 43/42/43 36/35/36 44/43/44 
f 39/38/39 44/43/44 38/37/38 
f 42/41/42 43/42/43 45/44/45 
f 44/43/44 45/44/45 43/42/43 
f 46/45/46 42/41/42 45/44/45 
f 44/43/44 46/45/46 45/44/45 
f 42/41/42 46/45/46 47/46/47 
f 48/47/48 47/46/47 46/45/46 
f 46/45/46 44/43/44 48/47/48 
f 47/46/47 48/47/48 49/48/49 
f 50/49/50 49/48/49 48/47/48 
f 48/47/48 44/43/44 50/49/50 
f 49/48/49 50/49/50 51/50/51 
f 52/51/52 51/50/51 50/49/50 
f 51/50/51 52/51/52 53/52/53 
f 54/53/54 53/52/53 52/51/52 
f 53/52/53 54/53/54 55/54/55 
f 50/49/50 56/55/56 52/51/52 
f 56/55/56 54/53/54 52/51/52 
f 56/55/56 50/49/50 44/43/44 
f 57/56/57 55/54/55 54/53/54 
f 54/53/54 56/55/56 57/56/57 
f 55/54/55 57/56/57 58/57/58 
f 59/58/59 58/57/58 57/56/57 
f 56/55/56 59/58/59 57/56/57 
f 56/55/56 44/43/44 60/59/60 
f 44/43/44 39/38/39 60/59/60 
f 37/36/37 60/59/60 39/38/39 
f 61/60/61 59/58/59 56/55/56 
f 56/55/56 60/59/60 61/60/61 
f 59/58/59 62/61/62 63/62/63 
f 59/58/59 61/60/61 62/61/62 
f 64/63/64 61/60/61 60/59/60 
f 61/60/61 64/63/64 62/61/62 
f 60/59/60 37/36/37 64/63/64 
f 65/64/65 66/65/66 67/66/67 
f 65/64/65 67/66/67 68/67/68 
f 69/68/69 70/69/70 71/70/71 
f 72/71/72 73/72/73 74/73/74 
f 72/71/72 74/73/74 75/74/75 
f 73/72/73 72/71/72 76/75/76 
f 75/74/75 77/76/77 72/71/72 
f 77/76/77 76/75/76 72/71/72 
f 77/76/77 75/74/75 78/77/78 
f 78/77/78 79/78/79 77/76/77 
f 80/79/80 81/54/81 82/80/82 
f 81/54/81 80/79/80 83/81/83 
f 83/81/83 84/82/84 81/54/81 
f 85/50/85 86/83/86 84/82/84 
f 87/84/87 88/85/88 85/50/85 
f 66/7/66 89/6/89 90/86/90 
f 89/6/89 66/7/66 33/8/33 
f 91/87/91 33/8/33 66/7/66 
f 33/8/33 91/87/91 34/88/34 
f 92/89/92 34/88/34 91/87/91 
f 35/4/35 34/88/34 92/89/92 
f 87/5/87 35/4/35 92/89/92 
f 35/4/35 87/5/87 2/2/2 
f 3/3/3 2/2/2 87/5/87 
f 3/3/3 83/90/83 1/1/1 
f 1/1/1 83/90/83 63/91/63 
f 83/90/83 80/92/80 63/91/63 
f 63/91/63 80/92/80 7/93/7 
f 40/91/40 90/94/90 89/95/89 
f 90/94/90 40/91/40 93/90/93 
f 94/1/94 93/90/93 40/91/40 
f 93/90/93 94/1/94 70/3/70 
f 94/1/94 6/2/6 70/3/70 
f 70/3/70 6/2/6 5/5/5 
f 5/5/5 4/4/4 75/89/75 
f 4/4/4 95/96/95 75/89/75 
f 75/89/75 95/96/95 78/97/78 
f 9/8/9 78/97/78 95/96/95 
f 8/7/8 78/97/78 9/8/9 
f 80/86/80 8/7/8 7/6/7 
f 10/9/10 12/11/12 76/75/76 
f 96/98/96 76/75/76 12/11/12 
f 76/75/76 96/98/96 73/72/73 
f 17/16/17 73/72/73 96/98/96 
f 14/13/14 13/12/13 97/99/97 
f 73/72/73 17/16/17 16/15/16 
f 97/99/97 21/20/21 14/13/14 
f 21/20/21 97/99/97 19/18/19 
f 86/83/86 25/24/25 23/22/23 
f 24/23/24 26/25/26 68/67/68 
f 25/24/25 86/83/86 27/26/27 
f 31/30/31 68/67/68 26/25/26 
f 28/27/28 27/26/27 86/83/86 
f 68/67/68 31/30/31 30/29/30 
f 36/35/36 89/100/89 33/32/33 
f 2/101/2 37/36/37 35/34/35 
f 89/100/89 36/35/36 41/40/41 
f 41/40/41 40/39/40 89/100/89 
f 42/41/42 94/102/94 40/39/40 
f 94/102/94 42/41/42 47/46/47 
f 47/46/47 6/103/6 94/102/94 
f 6/103/6 47/46/47 49/48/49 
f 49/48/49 4/104/4 6/103/6 
f 4/104/4 49/48/49 51/50/51 
f 51/50/51 53/52/53 4/104/4 
f 53/52/53 95/105/95 4/104/4 
f 55/54/55 95/105/95 53/52/53 
f 95/105/95 55/54/55 9/106/9 
f 58/57/58 9/106/9 55/54/55 
f 7/107/7 9/106/9 58/57/58 
f 59/58/59 7/107/7 58/57/58 
f 63/62/63 7/107/7 59/58/59 
f 1/108/1 63/62/63 62/61/62 
f 62/61/62 64/63/64 1/108/1 
f 37/36/37 2/101/2 64/63/64 
f 1/108/1 64/63/64 2/101/2 
f 66/65/66 65/64/65 91/102/91 
f 65/64/65 92/103/92 91/102/91 
f 66/65/66 90/109/90 67/66/67 
f 92/103/92 65/64/65 88/85/88 
f 88/85/88 87/84/87 92/103/92 
f 30/29/30 65/64/65 68/67/68 
f 30/29/30 88/85/88 65/64/65 
f 68/67/68 67/66/67 24/23/24 
f 88/85/88 30/29/30 28/27/28 
f 67/66/67 90/109/90 98/110/98 
f 98/110/98 24/23/24 67/66/67 
f 90/109/90 93/111/93 98/110/98 
f 69/68/69 24/23/24 98/110/98 
f 98/110/98 93/111/93 69/68/69 
f 24/23/24 69/68/69 18/17/18 
f 70/69/70 69/68/69 93/111/93 
f 71/70/71 18/17/18 69/68/69 
f 18/17/18 71/70/71 16/15/16 
f 71/70/71 70/69/70 5/112/5 
f 74/73/74 16/15/16 71/70/71 
f 74/73/74 71/70/71 5/112/5 
f 16/15/16 74/73/74 73/72/73 
f 5/112/5 75/74/75 74/73/74 
f 76/75/76 77/76/77 10/9/10 
f 79/78/79 10/9/10 77/76/77 
f 79/78/79 78/77/78 8/113/8 
f 10/9/10 79/78/79 13/12/13 
f 8/113/8 82/80/82 79/78/79 
f 82/80/82 13/12/13 79/78/79 
f 13/12/13 82/80/82 97/99/97 
f 82/80/82 8/113/8 80/79/80 
f 82/80/82 19/18/19 97/99/97 
f 19/18/19 82/80/82 81/54/81 
f 19/18/19 81/54/81 23/22/23 
f 81/54/81 84/82/84 23/22/23 
f 84/82/84 83/81/83 3/105/3 
f 23/22/23 84/82/84 86/83/86 
f 3/105/3 85/50/85 84/82/84 
f 85/50/85 3/105/3 87/84/87 
f 85/50/85 28/27/28 86/83/86 
f 88/85/88 28/27/28 85/50/85 
# 0 polygons - 180 triangles

